# xmcd CD database file
# Copyright (C) 1995 Ti Kan
#
# Track frame offsets:
#	150
#	18632
#	36362
#	56407
#	78227
#	92935
#	114200
#	125347
#	140152
#	158885
#	171875
#	190957
#	210057
#	229390
#
# Disc length: 3437 seconds
#
# Revision: 1
# Processed by: cddbd v1.4b42PL1 Copyright (c) Steve Scherf et al.
# Submitted via: NotifyCDPlayer(CDDB) 1.60beta7
#
DISCID=ba0d6b0e
DTITLE=Sven Zetterberg - Let Me Get over It
DYEAR=1900
DGENRE=
TTITLE0=My Sweetest Touch
TTITLE1=Take Time To Know Her
TTITLE2=How Come My Bulldog Don't Bark
TTITLE3=Let Me Get Over It
TTITLE4=Can I Change My Mind
TTITLE5=A Pink sunrise, Palm Trees And Golden Sand
TTITLE6=Turn Back The Hands Of Time
TTITLE7=You Name It, I've Had It
TTITLE8=Leaning Tree
TTITLE9=He's Too Old
TTITLE10=Train Of Love
TTITLE11=Dangerous Lonesome Soul
TTITLE12=You Took Off With My Life
TTITLE13=Lonesome For A Dime
EXTD=
EXTT0=
EXTT1=
EXTT2=
EXTT3=
EXTT4=
EXTT5=
EXTT6=
EXTT7=
EXTT8=
EXTT9=
EXTT10=
EXTT11=
EXTT12=
EXTT13=
PLAYORDER=
